<svg preserveAspectRatio="none" width="100%" height="100%" overflow="visible" style="display: block;" viewBox="0 0 26 32" fill="none" xmlns="http://www.w3.org/2000/svg">
<path id="Vector" d="M25.9926 6.54146C25.919 5.70448 25.3539 5.08468 24.5099 4.87759C24.4234 4.85663 24.2986 4.80157 24.2748 4.73331C23.8422 3.49374 22.4223 2.90186 21.2323 3.10745C20.6318 3.21139 20.0414 3.37584 19.4173 3.52012C19.7359 2.53577 20.059 1.53743 20.383 0.53754C20.4343 0.380086 20.4848 0.222597 20.5361 0.0651425C20.5139 0.0434282 20.4917 0.0217143 20.4695 0C20.2972 0.127988 20.1257 0.255185 19.9534 0.383206C13.9532 2.10217 9.71972 5.48497 5.90599 10.8087C5.96956 10.6729 6.02852 10.5527 6.08213 10.4301C6.59064 9.26731 7.19181 8.15885 7.93542 7.13259C9.17835 5.41829 10.7445 4.05073 12.4522 2.83984C13.3497 2.20378 14.2649 1.59406 15.1693 0.974296C14.1202 1.13954 13.1139 1.48704 12.1566 1.96719C11.207 2.44346 10.2811 2.96707 9.34454 3.46973C9.87523 2.99421 10.406 2.50164 10.9972 2.10217C11.5815 1.70812 12.2271 1.40714 12.8152 1.08211C12.7195 1.09607 12.5801 1.12012 12.4392 1.13642C10.6242 1.35051 8.91335 1.89271 7.34803 2.85305C4.59495 4.54176 2.72097 6.91074 1.94675 10.1152C1.92684 10.1943 1.89083 10.2788 1.83878 10.3409C1.04921 11.2756 0.814148 12.3546 1.04769 13.5414C1.09365 13.7765 1.04004 13.9114 0.894513 14.0759C0.623411 14.3831 0.380655 14.7159 0.126418 15.0378C2.43686 14.5731 3.81151 15.964 3.80691 16.9336C2.94459 16.2153 2.40852 15.9989 1.47885 15.9926C0.603531 15.9872 0.0398873 16.4852 0.00310822 17.3036C-0.0298101 18.0234 0.201467 18.6611 0.567497 19.2134C0.923604 18.945 1.26823 18.6851 1.65038 18.3973C1.78822 19.0861 2.19181 19.4515 2.72253 19.6795C3.2517 19.9076 3.80081 19.8952 4.34989 19.7121C3.93865 20.0535 3.47454 20.2295 2.9492 20.2062C2.30438 20.1783 1.81501 19.861 1.45816 19.308C1.03387 19.8417 0.916729 20.4157 1.0607 21.044C1.48877 22.9157 3.4462 24.032 5.26578 23.4262C5.68315 23.2873 6.07448 23.0686 6.4949 22.8785C6.12731 24.7945 5.18382 26.3094 3.56337 27.3768C6.27053 30.0654 9.91428 31.789 13.9532 32C13.3918 31.2561 12.8703 30.4781 12.2684 29.7699C11.0691 28.3581 9.6217 27.2923 7.83585 26.7532C7.65358 26.6981 7.46748 26.6554 7.28138 26.6174C7.10372 26.581 6.92375 26.5577 6.73766 26.5282C7.28138 26.0472 7.52757 26 8.53125 25.8518C9.87297 25.6536 11.2223 25.9728 12.78 27.4443C12.3749 25.7114 12.1328 23.9645 12.1282 22.1835C13.0289 25.5974 14.801 28.649 16.122 31.9666C16.4053 31.9434 16.6856 31.9123 16.9644 31.8743C16.9176 31.5423 16.8709 31.2351 16.8434 30.9272C16.6856 29.1555 16.9528 27.4567 17.7256 25.8518C18.0848 25.1063 18.1644 25.104 18.9785 25.1676C19.8523 25.235 20.7314 25.2653 21.6083 25.2599C22.4231 25.2545 23.058 24.7658 23.1882 24.0071C23.2609 23.582 23.1713 23.1259 23.1368 22.6861C23.1077 22.3153 23.0043 21.9484 23.336 21.6366C23.5404 21.445 23.4593 21.1727 23.4455 20.9206C23.437 20.7639 23.4654 20.5747 23.5488 20.4506C23.7189 20.1985 23.8399 19.9564 23.7525 19.6423C23.7196 19.5228 23.7196 19.3932 23.6951 19.2707C23.6499 19.0481 23.7273 18.9263 23.9547 18.8867C24.2825 18.8294 24.6126 18.7735 24.9334 18.6851C25.2934 18.5866 25.4067 18.3771 25.3401 18.0071C25.311 17.8465 25.2696 17.6875 25.239 17.5269C24.863 15.5411 24.4862 13.5554 24.1133 11.5688C24.0275 11.1088 23.957 10.6449 23.8797 10.1841C24.379 10.0608 24.7749 9.85061 25.0315 9.42552C25.2888 8.9981 25.2666 8.54741 25.1119 8.09906C25.7261 7.74302 26.0546 7.24658 25.9926 6.54146ZM2.05241 13.9672C1.59904 12.1552 2.61531 9.91654 4.08184 9.49533C4.46243 10.9746 3.71042 12.972 2.05241 13.9672ZM22.3465 4.75735C21.3694 6.11019 19.5552 6.06131 18.5741 5.48497C19.7749 4.40907 21.282 4.12284 22.3465 4.75735ZM20.0744 7.21632C19.1485 8.5482 16.9582 9.25098 15.0284 8.369C16.5508 7.19615 18.1399 6.4484 20.0744 7.21632ZM18.5236 2.75216C18.46 3.98477 17.9592 4.98307 17.0739 5.75879C16.3984 6.34987 15.6594 6.8657 14.9189 7.4382C15.167 5.16615 16.5401 3.32696 18.5236 2.75216ZM13.7656 6.33434C13.8008 7.14651 13.5396 7.85859 13.0602 8.48614C12.407 9.3425 11.4735 9.85837 10.6249 10.5301C10.8202 8.39383 12.201 6.7253 13.7656 6.33434ZM9.0734 9.87466C9.05884 10.7334 8.73186 11.4501 8.15365 12.0505C7.505 12.7262 6.65726 13.0845 5.82634 13.5476C6.59447 11.4012 7.64901 10.2129 9.0734 9.87466ZM5.85086 19.4205C5.40284 18.7797 5.35844 18.0924 5.73294 17.4005C6.09974 16.7233 6.717 16.5046 7.45525 16.51C6.71009 16.9018 6.28201 17.5045 6.2981 18.357C6.31341 19.1986 6.72543 19.7959 7.4897 20.1442C6.81118 20.2093 6.24679 19.9867 5.85086 19.4205ZM5.92665 14.4498C7.13894 13.7718 8.57485 13.8897 9.26793 14.7112C8.47379 15.2379 6.96131 15.4612 5.92665 14.4498ZM8.921 12.8766C9.91502 11.9946 11.5906 11.9334 12.5984 12.6804C11.8273 13.5453 9.98475 13.643 8.921 12.8766ZM11.6404 10.8272C13.0962 9.71408 14.6286 9.47516 16.04 10.2245C15.0437 11.4966 12.6544 11.6223 11.6404 10.8272ZM24.585 17.9753H22.5012C22.4806 17.8884 22.4576 17.7883 22.4285 17.6604C22.1459 17.8667 21.9468 18.0878 21.9736 18.4492C21.9996 18.7921 22.1934 19.0023 22.5028 19.097C22.8144 19.1932 22.9102 19.4445 22.9891 19.671C22.4775 19.8595 21.9828 20.0604 21.4766 20.2225C21.2216 20.3032 21.1787 20.4451 21.2338 20.6716C21.2591 20.7748 21.2752 20.8795 21.2959 20.9889C21.5501 20.8919 21.799 20.7725 22.0609 20.7058C22.2079 20.6686 22.404 20.6693 22.5265 20.7415C22.6452 20.8121 22.7471 20.992 22.7601 21.1324C22.7677 21.2232 22.6108 21.3388 22.5127 21.4272C22.4591 21.4768 22.3764 21.4939 22.3052 21.5218C21.7859 21.7243 21.7852 21.7243 21.7975 22.3022C22.4453 22.5225 22.698 23.0623 22.4698 23.7419C22.3443 24.1173 21.9078 24.3244 21.4253 24.2577C20.0399 24.0638 18.9425 23.3517 18.0411 22.3083C16.9583 21.0532 16.3548 19.5616 16.0025 17.9512C15.769 16.8854 15.7291 15.8064 15.7789 14.722C15.7828 14.6389 15.8785 14.5009 15.9474 14.49C17.4959 14.2457 19.0421 14.127 20.5584 14.6801C20.6388 14.7088 20.7299 14.7367 20.7881 14.7941C21.0554 15.0578 21.3257 14.9873 21.6191 14.8422C22.005 14.6522 22.4055 14.4908 22.7915 14.3C22.8597 14.2666 22.9385 14.1379 22.9263 14.0696C22.852 13.6724 22.7739 13.273 22.6567 12.8867C22.4538 12.2204 22.0632 11.9395 21.3778 11.8845C19.9565 11.7689 18.6454 12.1241 17.3504 12.7594C17.6054 12.4903 17.8306 12.1792 18.1231 11.962C18.4493 11.7208 18.8292 11.5447 19.2006 11.3756C19.6877 11.1537 20.2015 10.99 20.6832 10.7581C21.7806 10.2306 22.4262 9.34401 22.6169 8.12228C22.6422 8.11916 22.6667 8.11607 22.6912 8.11299C23.3206 11.3896 23.9494 14.6669 24.585 17.9753ZM19.4173 13.5414C19.5214 12.9868 20.5584 12.4523 21.0691 12.9263C21.4545 13.8073 20.4415 13.6523 19.4173 13.5414Z" fill="var(--fill-0, #464D77)"/>
</svg>
