<svg preserveAspectRatio="none" width="100%" height="100%" overflow="visible" style="display: block;" viewBox="0 0 32 32" fill="none" xmlns="http://www.w3.org/2000/svg">
<g id="Vector">
<path d="M32 16C32 24.8366 24.8366 32 16 32C7.16344 32 0 24.8366 0 16C0 7.16344 7.16344 0 16 0C24.8366 0 32 7.16344 32 16Z" fill="#787EA1"/>
<path d="M5.6 28.1593C5.60709 22.3955 10.2473 17.8074 15.9704 17.8074C21.6978 17.8074 26.3407 22.4025 26.3407 28.1726C26.3407 28.185 26.3407 28.1975 26.3407 28.2099C23.5519 30.5741 19.9425 32 16 32C12.0295 32 8.39684 30.5538 5.6 28.1593Z" fill="var(--fill-0, white)" fill-opacity="0.5"/>
<path d="M21.1556 11.5852C21.1556 14.4489 18.8342 16.7704 15.9705 16.7704C13.1068 16.7704 10.7853 14.4489 10.7853 11.5852C10.7853 8.72149 13.1068 6.4 15.9705 6.4C18.8342 6.4 21.1556 8.72149 21.1556 11.5852Z" fill="var(--fill-0, white)" fill-opacity="0.5"/>
</g>
</svg>
